<?xml version="1.0" encoding="UTF-8" standalone="no"?><!DOCTYPE svg PUBLIC "-//W3C//DTD SVG 1.1//EN" "http://www.w3.org/Graphics/SVG/1.1/DTD/svg11.dtd"><svg width="8092px" height="769px" version="1.1" xmlns="http://www.w3.org/2000/svg" xmlns:xlink="http://www.w3.org/1999/xlink" xml:space="preserve" xmlns:serif="http://www.serif.com/" style="fill-rule:evenodd;clip-rule:evenodd;stroke-linejoin:round;stroke-miterlimit:2;"><g transform="matrix(4.16667,0,0,4.16667,0,0)"><g id="ArtBoard1" transform="matrix(1,0,0,0.83978,-57.798,-108.808)"><rect x="57.798" y="129.567" width="1942.03" height="219.693" style="fill:none;"/><g transform="matrix(1,0,0,1.19079,-58.8573,49.3518)"><g><g transform="matrix(1,0,0,1,116.446,206.847)"><g transform="matrix(166.667,0,0,166.667,0,0)"><path d="M0.138,-0.675C0.1,-0.675 0.082,-0.657 0.082,-0.62L0.082,-0.055C0.082,-0.018 0.1,-0 0.138,-0L0.376,-0C0.574,-0 0.68,-0.11 0.68,-0.337C0.68,-0.565 0.573,-0.675 0.376,-0.675L0.138,-0.675ZM0.2,-0.545C0.2,-0.554 0.204,-0.557 0.213,-0.557L0.376,-0.557C0.507,-0.557 0.562,-0.492 0.562,-0.338C0.562,-0.183 0.507,-0.118 0.376,-0.118L0.213,-0.118C0.204,-0.118 0.2,-0.121 0.2,-0.13L0.2,-0.545Z" style="fill-rule:nonzero;"/></g><g transform="matrix(166.667,0,0,166.667,122.834,0)"><path d="M0.28,-0.528C0.139,-0.528 0.051,-0.442 0.051,-0.264C0.051,-0.086 0.139,-0 0.28,-0L0.391,-0C0.531,-0 0.62,-0.086 0.62,-0.264C0.62,-0.442 0.531,-0.528 0.391,-0.528L0.28,-0.528ZM0.381,-0.426C0.472,-0.426 0.513,-0.378 0.513,-0.264C0.513,-0.15 0.472,-0.103 0.381,-0.103L0.29,-0.103C0.198,-0.103 0.158,-0.15 0.158,-0.264C0.158,-0.378 0.198,-0.426 0.29,-0.426L0.381,-0.426Z" style="fill-rule:nonzero;"/></g><g transform="matrix(166.667,0,0,166.667,234.667,0)"><path d="M0.073,-0.528L0.073,-0.208C0.073,-0.086 0.151,-0 0.302,-0L0.4,-0C0.551,-0 0.629,-0.086 0.629,-0.208L0.629,-0.528L0.525,-0.528L0.525,-0.212C0.525,-0.15 0.48,-0.103 0.396,-0.103L0.31,-0.103C0.226,-0.103 0.18,-0.15 0.18,-0.212L0.18,-0.528L0.073,-0.528Z" style="fill-rule:nonzero;"/></g><g transform="matrix(166.667,0,0,166.667,351.667,0)"><path d="M0.076,-0.757L0.076,-0.226C0.076,-0.074 0.143,-0 0.27,-0L0.416,-0C0.556,-0 0.644,-0.086 0.644,-0.264C0.644,-0.442 0.556,-0.528 0.416,-0.528L0.182,-0.528L0.182,-0.757L0.076,-0.757ZM0.405,-0.426C0.497,-0.426 0.537,-0.378 0.537,-0.264C0.537,-0.15 0.497,-0.103 0.405,-0.103L0.301,-0.103C0.215,-0.103 0.182,-0.141 0.182,-0.231L0.182,-0.426L0.405,-0.426Z" style="fill-rule:nonzero;"/></g><g transform="matrix(166.667,0,0,166.667,467.501,0)"><rect x="0.076" y="-0.757" width="0.106" height="0.757" style="fill-rule:nonzero;"/></g><g transform="matrix(166.667,0,0,166.667,510.501,0)"><path d="M0.249,-0.528C0.117,-0.528 0.065,-0.454 0.065,-0.354L0.065,-0.174C0.065,-0.074 0.117,-0 0.249,-0L0.572,-0L0.572,-0.103L0.249,-0.103C0.191,-0.103 0.168,-0.134 0.168,-0.176L0.168,-0.214L0.419,-0.214C0.549,-0.214 0.598,-0.269 0.598,-0.366C0.598,-0.468 0.545,-0.528 0.42,-0.528L0.249,-0.528ZM0.168,-0.353C0.168,-0.394 0.191,-0.426 0.249,-0.426L0.419,-0.426C0.471,-0.426 0.494,-0.4 0.494,-0.36C0.494,-0.321 0.473,-0.297 0.416,-0.297L0.168,-0.297L0.168,-0.353Z" style="fill-rule:nonzero;"/></g><g transform="matrix(166.667,0,0,166.667,663.668,0)"><path d="M0.362,-0.675C0.166,-0.675 0.057,-0.564 0.057,-0.337C0.057,-0.111 0.165,-0 0.362,-0L0.623,-0L0.623,-0.118L0.362,-0.118C0.231,-0.118 0.175,-0.183 0.175,-0.337C0.175,-0.492 0.232,-0.557 0.362,-0.557L0.623,-0.557L0.623,-0.675L0.362,-0.675Z" style="fill-rule:nonzero;"/></g><g transform="matrix(166.667,0,0,166.667,777.335,0)"><path d="M0.076,-0.757L0.076,-0L0.182,-0L0.182,-0.426L0.368,-0.426C0.478,-0.426 0.527,-0.378 0.527,-0.297L0.527,-0L0.634,-0L0.634,-0.297C0.634,-0.442 0.546,-0.528 0.368,-0.528L0.182,-0.528L0.182,-0.757L0.076,-0.757Z" style="fill-rule:nonzero;"/></g><g transform="matrix(166.667,0,0,166.667,895.168,0)"><path d="M0.249,-0.528C0.117,-0.528 0.065,-0.454 0.065,-0.354L0.065,-0.174C0.065,-0.074 0.117,-0 0.249,-0L0.572,-0L0.572,-0.103L0.249,-0.103C0.191,-0.103 0.168,-0.134 0.168,-0.176L0.168,-0.214L0.419,-0.214C0.549,-0.214 0.598,-0.269 0.598,-0.366C0.598,-0.468 0.545,-0.528 0.42,-0.528L0.249,-0.528ZM0.168,-0.353C0.168,-0.394 0.191,-0.426 0.249,-0.426L0.419,-0.426C0.471,-0.426 0.494,-0.4 0.494,-0.36C0.494,-0.321 0.473,-0.297 0.416,-0.297L0.168,-0.297L0.168,-0.353Z" style="fill-rule:nonzero;"/></g><g transform="matrix(166.667,0,0,166.667,1003.84,0)"><path d="M0.218,-0.528C0.114,-0.528 0.075,-0.48 0.075,-0.374L0.075,-0L0.181,-0L0.181,-0.358C0.181,-0.404 0.202,-0.426 0.249,-0.426L0.435,-0.426L0.435,-0.528L0.218,-0.528Z" style="fill-rule:nonzero;"/></g><g transform="matrix(166.667,0,0,166.667,1081,0)"><path d="M0.218,-0.528C0.114,-0.528 0.075,-0.48 0.075,-0.374L0.075,-0L0.181,-0L0.181,-0.358C0.181,-0.404 0.202,-0.426 0.249,-0.426L0.435,-0.426L0.435,-0.528L0.218,-0.528Z" style="fill-rule:nonzero;"/></g></g><g transform="matrix(1,0,0,1,1277.95,206.847)"><g transform="matrix(166.667,0,0,166.667,0,0)"><path d="M0.515,-0.528L0.336,-0.113L0.322,-0.113C0.302,-0.113 0.297,-0.116 0.29,-0.135L0.131,-0.528L0.019,-0.528L0.196,-0.084C0.214,-0.038 0.235,-0.019 0.295,-0.019L0.196,0.212L0.31,0.212L0.628,-0.528L0.515,-0.528Z" style="fill-rule:nonzero;"/></g><g transform="matrix(166.667,0,0,166.667,152.33,0)"><path d="M0.362,-0.675C0.166,-0.675 0.057,-0.564 0.057,-0.337C0.057,-0.111 0.165,-0 0.362,-0L0.466,-0C0.617,-0 0.676,-0.093 0.676,-0.211C0.676,-0.328 0.617,-0.402 0.497,-0.402L0.335,-0.402L0.335,-0.299L0.485,-0.299C0.54,-0.299 0.568,-0.267 0.568,-0.213C0.568,-0.158 0.54,-0.118 0.474,-0.118L0.362,-0.118C0.231,-0.118 0.175,-0.183 0.175,-0.337C0.175,-0.492 0.232,-0.557 0.362,-0.557L0.64,-0.557L0.64,-0.675L0.362,-0.675Z" style="fill-rule:nonzero;"/></g><g transform="matrix(166.667,0,0,166.667,273.83,0)"><path d="M0.097,-0.528L0.097,-0.426L0.413,-0.426C0.471,-0.426 0.494,-0.394 0.494,-0.353L0.494,-0.313L0.243,-0.313C0.113,-0.313 0.065,-0.257 0.065,-0.161C0.065,-0.061 0.117,-0 0.242,-0L0.489,-0C0.578,-0 0.598,-0.03 0.598,-0.106L0.598,-0.354C0.598,-0.454 0.546,-0.528 0.414,-0.528L0.097,-0.528ZM0.465,-0.103L0.243,-0.103C0.19,-0.103 0.169,-0.128 0.169,-0.167C0.169,-0.206 0.189,-0.229 0.245,-0.229L0.494,-0.229L0.494,-0.13C0.494,-0.111 0.486,-0.103 0.465,-0.103Z" style="fill-rule:nonzero;"/></g><g transform="matrix(166.667,0,0,166.667,385.831,0)"><path d="M0.15,-0.528C0.097,-0.528 0.076,-0.508 0.076,-0.446L0.076,-0L0.182,-0L0.182,-0.411C0.182,-0.421 0.186,-0.426 0.195,-0.426L0.463,-0.426L0.463,-0L0.57,-0L0.57,-0.426L0.694,-0.426C0.805,-0.426 0.853,-0.38 0.853,-0.297L0.853,-0L0.96,-0L0.96,-0.297C0.96,-0.443 0.872,-0.528 0.693,-0.528L0.15,-0.528Z" style="fill-rule:nonzero;"/></g><g transform="matrix(166.667,0,0,166.667,557.831,0)"><path d="M0.249,-0.528C0.117,-0.528 0.065,-0.454 0.065,-0.354L0.065,-0.174C0.065,-0.074 0.117,-0 0.249,-0L0.572,-0L0.572,-0.103L0.249,-0.103C0.191,-0.103 0.168,-0.134 0.168,-0.176L0.168,-0.214L0.419,-0.214C0.549,-0.214 0.598,-0.269 0.598,-0.366C0.598,-0.468 0.545,-0.528 0.42,-0.528L0.249,-0.528ZM0.168,-0.353C0.168,-0.394 0.191,-0.426 0.249,-0.426L0.419,-0.426C0.471,-0.426 0.494,-0.4 0.494,-0.36C0.494,-0.321 0.473,-0.297 0.416,-0.297L0.168,-0.297L0.168,-0.353Z" style="fill-rule:nonzero;"/></g><g transform="matrix(166.667,0,0,166.667,666.498,0)"><path d="M0.223,-0.528C0.1,-0.528 0.051,-0.469 0.051,-0.374C0.051,-0.293 0.087,-0.22 0.233,-0.22L0.358,-0.22C0.411,-0.22 0.433,-0.203 0.433,-0.161C0.433,-0.12 0.413,-0.103 0.364,-0.103L0.057,-0.103L0.057,-0L0.364,-0C0.488,-0 0.537,-0.066 0.537,-0.16C0.537,-0.242 0.5,-0.309 0.354,-0.309L0.23,-0.309C0.171,-0.309 0.155,-0.329 0.155,-0.366C0.155,-0.406 0.175,-0.426 0.224,-0.426L0.516,-0.426L0.516,-0.528L0.223,-0.528Z" style="fill-rule:nonzero;"/></g></g></g></g></g></g></svg>